<svg width="16" height="17" viewBox="0 0 16 17" fill="none" xmlns="http://www.w3.org/2000/svg">
<path d="M15.9924 9.63665C16.018 10.2825 15.8006 10.9128 15.388 11.3891C14.9753 11.8654 14.4012 12.1489 13.7915 12.1774C13.7558 12.1791 13.7202 12.18 13.6847 12.18C13.5227 12.1799 13.3612 12.1613 13.2029 12.1246C12.7334 12.8926 12.1177 13.5482 11.3952 14.0497C10.6727 14.5511 9.85936 14.8873 9.0072 15.0368C8.9064 15.3504 8.70532 15.6169 8.43871 15.7902C8.17209 15.9634 7.8567 16.0326 7.54706 15.9857C7.23742 15.9388 6.95298 15.7787 6.74292 15.5332C6.53286 15.2878 6.41037 14.9722 6.39663 14.6413C6.38289 14.3103 6.47877 13.9846 6.66769 13.7205C6.8566 13.4565 7.12668 13.2706 7.43124 13.1951C7.73581 13.1196 8.05571 13.1591 8.33564 13.307C8.61558 13.4548 8.83797 13.7015 8.96436 14.0046C10.1641 13.7696 11.2479 13.0961 12.027 12.1015C12.806 11.1069 13.2308 9.85431 13.2274 8.56199C13.2274 5.5089 10.8824 3.02504 8 3.02504C5.11757 3.02504 2.77256 5.5089 2.77256 8.56199C2.77241 9.50606 3.0002 10.4345 3.43428 11.259C3.44899 11.2862 3.46003 11.3155 3.46708 11.3459C3.50901 11.4694 3.50453 11.6052 3.45456 11.7252C3.4046 11.8452 3.31298 11.9403 3.19866 11.9908C2.91874 12.1156 2.6181 12.1798 2.3144 12.1798C2.27866 12.1798 2.24284 12.1789 2.20695 12.1772C1.59749 12.1483 1.02371 11.8646 0.611411 11.3883C0.199115 10.9121 -0.0180417 10.282 0.00755588 9.63641C0.0178462 9.37895 0.0121043 9.14924 0.00649136 8.92711C0.00126554 8.71797 -0.00418608 8.50169 0.00478169 8.27601C0.0315455 7.64562 0.287555 7.05066 0.719188 6.61573C1.15082 6.1808 1.7246 5.93964 2.32034 5.94277C3.27699 3.62439 5.46257 2 8 2C10.5374 2 12.723 3.62439 13.6797 5.9428C14.2755 5.9392 14.8495 6.18015 15.2812 6.61509C15.7129 7.05003 15.9688 7.64516 15.9952 8.27563C16.0042 8.50165 15.9988 8.7179 15.9935 8.92705C15.9879 9.14921 15.9822 9.37902 15.9924 9.63665ZM12.0582 8.56199C12.058 9.22053 11.915 9.87021 11.6402 10.4609C11.3654 11.0517 10.9662 11.5677 10.4734 11.9691C9.98051 12.3706 9.40721 12.6468 8.79765 12.7764C8.18809 12.906 7.55856 12.8857 6.95761 12.7168L5.31499 13.7216C5.23211 13.7723 5.1369 13.7958 5.04139 13.7892C4.94589 13.7826 4.85438 13.7461 4.77845 13.6844C4.70252 13.6227 4.64557 13.5385 4.61481 13.4425C4.58405 13.3465 4.58086 13.243 4.60563 13.1451L5.02544 11.4863C4.33022 10.6904 3.94339 9.64634 3.94192 8.56199C3.94192 6.19113 5.76228 4.26248 8 4.26248C10.2377 4.26248 12.0582 6.19113 12.0582 8.56199ZM6.87177 8.56199C6.87177 8.42606 6.82079 8.2957 6.73005 8.19959C6.6393 8.10347 6.51623 8.04947 6.3879 8.04947H6.38709C6.29143 8.04966 6.19797 8.07988 6.11851 8.13631C6.03906 8.19274 5.97718 8.27285 5.9407 8.36652C5.90421 8.46019 5.89476 8.56321 5.91353 8.66257C5.9323 8.76192 5.97846 8.85316 6.04616 8.92474C6.11387 8.99632 6.20009 9.04504 6.29393 9.06474C6.38776 9.08443 6.48501 9.07423 6.57337 9.03541C6.66174 8.99659 6.73725 8.9309 6.79038 8.84664C6.84351 8.76237 6.87187 8.66332 6.87187 8.56199H6.87177ZM8.48397 8.56199C8.48393 8.54522 8.48307 8.52845 8.48139 8.51177C8.47986 8.49502 8.47751 8.47837 8.47432 8.46188C8.47143 8.44546 8.46754 8.42925 8.46268 8.41336C8.45819 8.3973 8.45271 8.38159 8.44691 8.36587C8.4411 8.35015 8.434 8.33546 8.42658 8.32077C8.41921 8.30599 8.41114 8.29162 8.40239 8.27771C8.39357 8.26366 8.38408 8.25009 8.37397 8.23705C8.36403 8.22399 8.35337 8.21156 8.34207 8.19981C8.3311 8.18785 8.31916 8.17658 8.3069 8.16564C8.29461 8.15539 8.28171 8.14514 8.26849 8.13592C8.25537 8.12665 8.24181 8.1181 8.22787 8.11029C8.21397 8.10243 8.19948 8.09526 8.18494 8.08876C8.17041 8.08232 8.15556 8.07673 8.14045 8.07202C8.11028 8.06176 8.07912 8.05511 8.04755 8.0522C8.00016 8.04737 7.95235 8.04979 7.90561 8.05938C7.89005 8.06274 7.87466 8.06696 7.85952 8.07202C7.84439 8.07672 7.82953 8.08231 7.815 8.08876C7.80048 8.09526 7.78597 8.10243 7.7721 8.11029C7.75822 8.11815 7.74468 8.12669 7.73142 8.13592C7.71816 8.14514 7.70529 8.15539 7.69339 8.16564C7.68081 8.17658 7.66919 8.18785 7.6579 8.19981C7.64658 8.21157 7.63591 8.224 7.62593 8.23705C7.61595 8.25009 7.60659 8.26367 7.5979 8.27771C7.58904 8.29161 7.58085 8.30598 7.57339 8.32077C7.56594 8.3354 7.55926 8.35046 7.55335 8.36587C7.54723 8.3814 7.54185 8.39725 7.53722 8.41336C7.53274 8.42908 7.52887 8.44548 7.52564 8.46188C7.52246 8.47837 7.52008 8.49502 7.51852 8.51177C7.51693 8.52851 7.51626 8.54525 7.51626 8.56199C7.51626 8.57874 7.51693 8.59582 7.51852 8.61256C7.5201 8.62919 7.52248 8.64573 7.52564 8.66211C7.52887 8.67851 7.53274 8.69491 7.53722 8.71097C7.54185 8.72696 7.54723 8.7427 7.55335 8.75812C7.55925 8.77364 7.56594 8.78881 7.57339 8.80356C7.58077 8.81825 7.58919 8.83261 7.5979 8.84661C7.60659 8.86055 7.61595 8.87401 7.62593 8.88693C7.63599 8.90002 7.64666 8.91257 7.6579 8.92452C7.66919 8.93613 7.68081 8.94775 7.69339 8.95834C7.70552 8.96901 7.71822 8.97894 7.73142 8.98807C7.74468 8.9973 7.75819 9.00618 7.7721 9.01404C7.80011 9.02951 7.82937 9.04231 7.85952 9.05231C7.87465 9.05709 7.89013 9.06119 7.90561 9.06461C7.93671 9.07135 7.96839 9.07467 8.00013 9.07451C8.12831 9.07415 8.25118 9.02026 8.34207 8.92452C8.36436 8.90054 8.38455 8.87447 8.40239 8.84661C8.4111 8.83261 8.41916 8.81825 8.42658 8.80356C8.434 8.78887 8.44078 8.77349 8.44691 8.75812C8.45303 8.74274 8.45819 8.72668 8.46268 8.71097C8.4675 8.69495 8.47139 8.67863 8.47432 8.66211C8.47748 8.64573 8.47984 8.62919 8.48139 8.61256C8.48304 8.59574 8.48387 8.57884 8.48387 8.56192L8.48397 8.56199ZM10.0969 8.56199C10.0969 8.42606 10.0459 8.2957 9.95515 8.19959C9.86441 8.10347 9.74134 8.04947 9.613 8.04947H9.61207C9.51641 8.04967 9.42295 8.07989 9.3435 8.13633C9.26405 8.19276 9.20218 8.27288 9.1657 8.36655C9.12922 8.46021 9.11977 8.56323 9.13854 8.66259C9.15732 8.76194 9.20348 8.85317 9.27119 8.92475C9.33889 8.99633 9.42511 9.04504 9.51895 9.06474C9.61279 9.08443 9.71003 9.07423 9.79839 9.03541C9.88675 8.99659 9.96227 8.93089 10.0154 8.84663C10.0685 8.76237 10.0969 8.66332 10.0969 8.56199Z" fill="black"/>
</svg>
