<svg width="16" height="17" viewBox="0 0 16 17" fill="none" xmlns="http://www.w3.org/2000/svg">
<g clip-path="url(#clip0_1274_435)">
<path d="M12 8.5C10.8002 8.5 9.7266 9.03059 8.99359 9.86719L6.45461 8.30457C6.58461 7.94777 6.6668 7.56816 6.6668 7.16656C6.6668 6.90418 6.62918 6.65176 6.5718 6.40617L9.9468 4.84879C10.4356 5.4452 11.1686 5.8332 12.0002 5.8332C13.4722 5.8332 14.6668 4.63922 14.6668 3.1666C14.6668 1.69398 13.472 0.5 12 0.5C10.5268 0.5 9.3334 1.69398 9.3334 3.1666C9.3334 3.32922 9.35359 3.48621 9.38078 3.64121L6.00977 5.19723C5.40238 4.37359 4.43422 3.8332 3.3334 3.8332C1.49219 3.8334 0 5.32539 0 7.1666C0 9.00781 1.49219 10.5 3.3334 10.5C4.2916 10.5 5.1498 10.0898 5.75781 9.44141L8.29301 11.0014C8.10539 11.4648 8 11.9694 8 12.5C8 14.7096 9.79039 16.5 12 16.5C14.2084 16.5 16 14.7096 16 12.5C16 10.2904 14.2084 8.5 12 8.5Z" fill="black"/>
</g>
<defs>
<clipPath id="clip0_1274_435">
<rect width="16" height="16" fill="white" transform="translate(0 0.5)"/>
</clipPath>
</defs>
</svg>
