<svg width="20" height="20" viewBox="0 0 20 20" fill="none" xmlns="http://www.w3.org/2000/svg">
<path d="M10.3141 3.15066C10.2308 3.05419 10.1178 3 10 3C9.88221 3 9.76924 3.05419 9.6859 3.15066L6.12999 7.27191C6.04675 7.3685 6 7.49944 6 7.63596C6 7.77247 6.04675 7.90341 6.12999 8H13.87C13.9532 7.90341 14 7.77247 14 7.63596C14 7.49944 13.9532 7.3685 13.87 7.27191L10.3141 3.15066Z" fill="white"/>
<path opacity="0.4" d="M10.3141 15.8493C10.2308 15.9458 10.1178 16 10 16C9.88221 16 9.76924 15.9458 9.6859 15.8493L6.12999 11.7281C6.04675 11.6315 6 11.5006 6 11.364C6 11.2275 6.04675 11.0966 6.12999 11H13.87C13.9532 11.0966 14 11.2275 14 11.364C14 11.5006 13.9532 11.6315 13.87 11.7281L10.3141 15.8493Z" fill="white"/>
</svg>
