<svg width="16" height="17" viewBox="0 0 16 17" fill="none" xmlns="http://www.w3.org/2000/svg">
<path d="M14 5.58984V9.49984C14 9.82815 13.9353 10.1532 13.8097 10.4566C13.6841 10.7599 13.4999 11.0355 13.2678 11.2676C13.0356 11.4998 12.76 11.6839 12.4567 11.8095C12.1534 11.9352 11.8283 11.9998 11.5 11.9998H5V12.4998C5.00119 12.8973 5.1596 13.2781 5.44065 13.5592C5.7217 13.8402 6.10254 13.9987 6.5 13.9998H12.265C12.3432 14.0009 12.4201 14.0197 12.49 14.0548L14.275 14.9448C14.3449 14.98 14.4218 14.9988 14.5 14.9998C14.5936 14.9998 14.6853 14.9738 14.765 14.9248C14.8371 14.8798 14.8964 14.8172 14.9376 14.7428C14.9787 14.6684 15.0002 14.5848 15 14.4998V6.99984C14.9991 6.69037 14.9026 6.38874 14.7235 6.13631C14.5445 5.88388 14.2918 5.693 14 5.58984Z" fill="black"/>
<path d="M13 9.5V3.5C13 3.10218 12.842 2.72064 12.5607 2.43934C12.2794 2.15804 11.8978 2 11.5 2H2.5C2.10218 2 1.72064 2.15804 1.43934 2.43934C1.15804 2.72064 1 3.10218 1 3.5V12.5C0.999965 12.5942 1.02655 12.6865 1.07669 12.7663C1.12683 12.8461 1.19849 12.91 1.28341 12.9508C1.36833 12.9917 1.46305 13.0076 1.55666 12.997C1.65026 12.9863 1.73895 12.9494 1.8125 12.8905L4.0385 11.1095C4.12694 11.0388 4.23676 11.0002 4.35 11H11.5C11.8978 11 12.2794 10.842 12.5607 10.5607C12.842 10.2794 13 9.89782 13 9.5ZM7.46 8.69C7.43754 8.75205 7.40172 8.8084 7.35506 8.85506C7.3084 8.90172 7.25205 8.93754 7.19 8.96C7.13013 8.98636 7.06542 8.99998 7 8.99998C6.93458 8.99998 6.86987 8.98636 6.81 8.96C6.74795 8.93754 6.6916 8.90172 6.64494 8.85506C6.59828 8.8084 6.56246 8.75205 6.54 8.69C6.51438 8.62989 6.50079 8.56534 6.5 8.5C6.50194 8.36764 6.55372 8.24087 6.645 8.145C6.69363 8.10087 6.74943 8.06536 6.81 8.04C6.86965 8.0128 6.93444 7.99873 7 7.99873C7.06556 7.99873 7.13035 8.0128 7.19 8.04C7.25057 8.06536 7.30637 8.10087 7.355 8.145C7.4471 8.24034 7.49901 8.36744 7.5 8.5C7.49921 8.56534 7.48562 8.62989 7.46 8.69ZM7.5555 6.94C7.52829 6.95632 7.50605 6.97974 7.49116 7.00776C7.47627 7.03578 7.4693 7.06732 7.471 7.099C7.471 7.23161 7.41832 7.35879 7.32455 7.45255C7.23079 7.54632 7.10361 7.599 6.971 7.599C6.83839 7.599 6.71121 7.54632 6.61745 7.45255C6.52368 7.35879 6.471 7.23161 6.471 7.099C6.4676 6.86958 6.53228 6.64429 6.65687 6.45161C6.78146 6.25894 6.96038 6.10752 7.171 6.0165C7.27615 5.97289 7.36444 5.89656 7.42279 5.79882C7.48113 5.70108 7.50643 5.58714 7.49493 5.47389C7.48342 5.36064 7.43573 5.25411 7.35892 5.1701C7.28211 5.0861 7.18027 5.02908 7.0685 5.0075C6.94391 4.98479 6.8153 5.00692 6.70547 5.06998C6.59564 5.13304 6.51169 5.23295 6.4685 5.352C6.42318 5.47582 6.33079 5.57673 6.21143 5.63276C6.09207 5.68879 5.95542 5.69541 5.8312 5.65117C5.70699 5.60693 5.60528 5.51542 5.54822 5.39655C5.49115 5.27769 5.48334 5.14109 5.5265 5.0165C5.61154 4.77613 5.75532 4.56083 5.94476 4.39018C6.13421 4.21954 6.36331 4.09896 6.61123 4.03942C6.85915 3.97987 7.11802 3.98325 7.3643 4.04924C7.61058 4.11523 7.83646 4.24175 8.02139 4.41728C8.20631 4.59281 8.34443 4.81178 8.42317 5.05429C8.5019 5.2968 8.51877 5.55514 8.47223 5.80583C8.42568 6.05651 8.31721 6.29158 8.15667 6.48966C7.99613 6.68775 7.78861 6.84255 7.553 6.94H7.5555Z" fill="black"/>
</svg>
