<svg width="16" height="17" viewBox="0 0 16 17" fill="none" xmlns="http://www.w3.org/2000/svg">
<g clip-path="url(#clip0_1274_381)">
<path d="M12.6672 0.5H3.38379C2.62773 0.5 1.96387 1.12198 1.96387 1.8582V15.5911C1.96387 15.8376 2.03246 16.043 2.143 16.2016C2.2752 16.3913 2.48806 16.5001 2.71631 16.5C2.93211 16.5 3.16188 16.4039 3.37406 16.2227L7.52744 12.6963C7.65572 12.5867 7.83998 12.5239 8.03156 12.5239C8.22307 12.5239 8.40695 12.5867 8.5356 12.6966L12.6751 16.2222C12.888 16.4039 13.102 16.5001 13.3174 16.5001C13.6817 16.5001 14.0368 16.2191 14.0368 15.5912V1.8582C14.0368 1.12198 13.4232 0.5 12.6672 0.5Z" fill="black"/>
</g>
<defs>
<clipPath id="clip0_1274_381">
<rect width="16" height="16" fill="white" transform="translate(0 0.5)"/>
</clipPath>
</defs>
</svg>
